# xmcd CD database file
#
# Track frame offsets:
#	150
#	23734
#	57002
#	73505
#	100132
#	118073
#	151918
#	170253
#	188740
#	221394
#	251654
#	272474
#
# Disc length: 4164 seconds
#
# Revision: 0
# Processed by: cddbd v1.5.2PL0 Copyright (c) Steve Scherf et al.
# Submitted via: CDex 1.70beta2
#
DISCID=9810420c
DTITLE=Masekela,Hugh - The Best Of [CD2)
DYEAR=2010
DGENRE=Jazz
TTITLE0=In The Market Place
TTITLE1=Lobo
TTITLE2=Skokiaan
TTITLE3=Inner Class
TTITLE4=Joannesburg Hi-Lite Jive
TTITLE5=Whitch Doctor
TTITLE6=Sh-Been
TTITLE7=The Boy´s  Doin´ It
TTITLE8=Stimela (Jazzanova Remix)
TTITLE9=Languta (Afrocool Remix)
TTITLE10=U, Dwi (KaHeDi Mix)
TTITLE11=In The Market Place
EXTD=YEAR: 2010
EXTT0=
EXTT1=
EXTT2=
EXTT3=
EXTT4=
EXTT5=
EXTT6=
EXTT7=
EXTT8=
EXTT9=
EXTT10=
EXTT11=
PLAYORDER=
